Coordinates
version=1
nRows=37
nColumns=11
inDegrees=yes

Units are S.I. units (second, meters, Newtons, ...)
If the header above contains a line with 'inDegrees', this indicates whether rotational values are in degrees (yes) or radians (no).

endheader
time	pelvis_tilt	pelvis_tx	pelvis_ty	hip_flexion_l	hip_flexion_r	knee_angle_l	knee_angle_r	ankle_angle_l	ankle_angle_r	lumbar
      3.85000000	    -21.87001623	      0.12813797	      0.76790698	     77.85880038	     77.85880038	    -71.07484728	    -71.07484728	     13.66929417	     13.66929417	    -35.96039209
      3.86000000	    -22.15010067	      0.13179156	      0.77100125	     77.48308404	     77.48308404	    -70.51891363	    -70.51891363	     13.69561207	     13.69561207	    -35.59209183
      3.87000000	    -22.42010335	      0.13537537	      0.77419448	     77.09203491	     77.09203491	    -69.93962531	    -69.93962531	     13.71519463	     13.71519463	    -35.20149969
      3.88000000	    -22.66742958	      0.13891931	      0.77749833	     76.66909833	     76.66909833	    -69.33605571	    -69.33605571	     13.72036058	     13.72036058	    -34.82748516
      3.89000000	    -22.88997582	      0.14243444	      0.78089052	     76.21415026	     76.21415026	    -68.71385865	    -68.71385865	     13.71139261	     13.71139261	    -34.45205215
      3.90000000	    -23.07149354	      0.14593543	      0.78438223	     75.71335338	     75.71335338	    -68.08164857	    -68.08164857	     13.68202064	     13.68202064	    -34.09655142
      3.91000000	    -23.06371029	      0.14953022	      0.78835520	     74.98440622	     74.98440622	    -67.40696687	    -67.40696687	     13.54954680	     13.54954680	    -33.95912717
      3.92000000	    -23.28620430	      0.15289231	      0.79174595	     74.53129663	     74.53129663	    -66.75436189	    -66.75436189	     13.55544463	     13.55544463	    -33.48984317
      3.93000000	    -23.28402577	      0.15641256	      0.79564372	     73.81102538	     73.81102538	    -66.07065385	    -66.07065385	     13.46823759	     13.46823759	    -33.27699339
      3.94000000	    -23.49984155	      0.15966788	      0.79898962	     73.35826802	     73.35826802	    -65.40236753	    -65.40236753	     13.48785705	     13.48785705	    -32.75602525
      3.95000000	    -23.63762271	      0.16294578	      0.80249866	     72.81126944	     72.81126944	    -64.71364301	    -64.71364301	     13.48168179	     13.48168179	    -32.30400150
      3.96000000	    -23.50056140	      0.16645966	      0.80658341	     71.94471693	     71.94471693	    -64.01459061	    -64.01459061	     13.38167400	     13.38167400	    -32.16994196
      3.97000000	    -23.67475307	      0.16965222	      0.80989384	     71.45395662	     71.45395662	    -63.33706050	    -63.33706050	     13.39698292	     13.39698292	    -31.60001869
      3.98000000	    -23.79930078	      0.17283495	      0.81329601	     70.90705095	     70.90705095	    -62.64535157	    -62.64535157	     13.39551919	     13.39551919	    -31.06262974
      3.99000000	    -23.78122282	      0.17610376	      0.81700222	     70.19465195	     70.19465195	    -61.93804992	    -61.93804992	     13.33753213	     13.33753213	    -30.68269393
      4.00000000	    -23.84647804	      0.17926700	      0.82052723	     69.57106849	     69.57106849	    -61.20377408	    -61.20377408	     13.31342316	     13.31342316	    -30.16807421
      4.01000000	    -23.48299778	      0.18277852	      0.82496043	     68.46717399	     68.46717399	    -60.46983442	    -60.46983442	     13.10459384	     13.10459384	    -30.17512718
      4.02000000	    -23.61490522	      0.18584630	      0.82822040	     67.94723091	     67.94723091	    -59.77331704	    -59.77331704	     13.11276146	     13.11276146	    -29.50732020
      4.03000000	    -23.67191894	      0.18895451	      0.83166500	     67.33212948	     67.33212948	    -59.04791923	    -59.04791923	     13.08558871	     13.08558871	    -28.91215511
      4.04000000	    -23.29452617	      0.19241378	      0.83610469	     66.20120305	     66.20120305	    -58.26146731	    -58.26146731	     12.83851810	     12.83851810	    -28.84998455
      4.05000000	    -23.40913224	      0.19546097	      0.83936671	     65.65838944	     65.65838944	    -57.53546512	    -57.53546512	     12.84424230	     12.84424230	    -28.11776472
      4.06000000	    -23.42532824	      0.19855856	      0.84285966	     64.98867986	     64.98867986	    -56.77405706	    -56.77405706	     12.79756960	     12.79756960	    -27.49244697
      4.07000000	    -23.00967241	      0.20200943	      0.84738361	     63.80746052	     63.80746052	    -55.95389273	    -55.95389273	     12.50731573	     12.50731573	    -27.41859862
      4.08000000	    -23.12288901	      0.20504612	      0.85063846	     63.25352471	     63.25352471	    -55.20127350	    -55.20127350	     12.51396769	     12.51396769	    -26.62804008
      4.09000000	    -22.78662182	      0.20840852	      0.85497589	     62.14850603	     62.14850603	    -54.34542453	    -54.34542453	     12.25023533	     12.25023533	    -26.40391095
      4.10000000	    -22.86399912	      0.21146003	      0.85832525	     61.54097789	     61.54097789	    -53.55833475	    -53.55833475	     12.23631632	     12.23631632	    -25.62574500
      4.11000000	    -22.52289651	      0.21483070	      0.86267445	     60.41809624	     60.41809624	    -52.67214472	    -52.67214472	     11.95767625	     11.95767625	    -25.37991288
      4.12000000	    -22.62594833	      0.21784888	      0.86596825	     59.83252685	     59.83252685	    -51.86005072	    -51.86005072	     11.96006604	     11.96006604	    -24.53974536
      4.13000000	    -22.23735337	      0.22126564	      0.87043349	     58.63810041	     58.63810041	    -50.93556359	    -50.93556359	     11.64033321	     11.64033321	    -24.33423931
      4.14000000	    -22.31214944	      0.22433142	      0.87377025	     58.00646725	     58.00646725	    -50.09635868	    -50.09635868	     11.62510739	     11.62510739	    -23.50437423
      4.15000000	    -21.90729256	      0.22776183	      0.87824454	     56.78508644	     56.78508644	    -49.14637820	    -49.14637820	     11.29305496	     11.29305496	    -23.29616345
      4.16000000	    -21.97177337	      0.23085605	      0.88157087	     56.13430017	     56.13430017	    -48.28668047	    -48.28668047	     11.27356971	     11.27356971	    -22.45707657
      4.17000000	    -21.52237302	      0.23434044	      0.88609010	     54.85356883	     54.85356883	    -47.31287975	    -47.31287975	     10.92275212	     10.92275212	    -22.28140399
      4.18000000	    -21.57559441	      0.23746916	      0.88936280	     54.18985314	     54.18985314	    -46.44740752	    -46.44740752	     10.90344532	     10.90344532	    -21.42628194
      4.19000000	    -21.06834120	      0.24102293	      0.89394172	     52.83399796	     52.83399796	    -45.44676656	    -45.44676656	     10.53585297	     10.53585297	    -21.30930441
      4.20000000	    -21.04682528	      0.24423593	      0.89732612	     52.06164671	     52.06164671	    -44.52578321	    -44.52578321	     10.47658171	     10.47658171	    -20.52734572
      4.21000000	    -20.53538340	      0.24779621	      0.90174806	     50.72228826	     50.72228826	    -43.55828361	    -43.55828361	     10.13603739	     10.13603739	    -20.38556954
